<svg id="Layer_1" data-name="Layer 1" xmlns="http://www.w3.org/2000/svg" viewBox="0 0 1921 1081"><defs><style>.cls-1{fill:#1c1836;}.cls-2{fill:#4447ab;}.cls-3{fill:#6165ce;}.cls-4{fill:#979af2;}</style></defs><rect class="cls-1" width="1920" height="1080"/><path class="cls-2" d="M645,0S555.5,128.5,362.5,160.5s-255,164-255,164S55.5,418.5,0,460V0Z"/><path class="cls-3" d="M553.86,0S477,110.34,311.28,137.82s-219,140.83-219,140.83S47.66,359.36,0,395V0Z"/><path class="cls-4" d="M462.72,0S398.51,92.18,260.05,115.14,77.12,232.79,77.12,232.79,39.82,300.23,0,330V0Z"/><path class="cls-2" d="M0,803s93-124,201-17S361,918,361,918s185,98,284,53,166,109,166,109H0Z"/><path class="cls-3" d="M0,847.74s91.05-104,196.79-14.25S353.43,944.17,353.43,944.17s181.12,82.17,278.05,44.44S794,1080,794,1080H0Z"/><path class="cls-4" d="M0,897s88.41-81.92,191.09-11.23S343.19,973,343.19,973s175.88,64.75,270,35S771,1080,771,1080H0Z"/><path class="cls-2" d="M1199,1080c135.41-78.75,241.88-94.68,317-93,47.08,1,102.13,9.47,148-26,49.84-38.54,81.36-123.11,83-126h0s75-280,173-257v502Z"/><path class="cls-3" d="M1236,1081c128.65-59.61,229.81-71.67,301.17-70.4,44.74.8,97,7.18,140.61-19.68,47.36-29.17,77.3-93.18,78.86-95.37h0S1827.89,683.61,1921,701v380Z"/><path class="cls-4" d="M1286,1081c119.26-46.47,213-55.87,279.19-54.88,41.47.63,89.94,5.6,130.35-15.34,43.89-22.74,71.65-72.64,73.1-74.34h0s66-165.22,152.36-151.65V1081Z"/><path class="cls-2" d="M1078.33,0C1192.18,105.13,1284.08,137.21,1349,146c16.62,2.25,78.82,9.38,163,27,74,15.48,97.4,24.92,114,33,59.29,28.86,96.72,72.13,118,102,3.19,5.67,31.68,54.31,90,62,45,5.93,78.23-16.45,86-22V0Z"/><path class="cls-3" d="M1169,0c101.58,89.55,183.58,116.87,241.51,124.36,14.83,1.91,70.33,8,145.44,23,66,13.18,86.91,21.22,101.72,28.1C1710.58,200,1744,236.9,1763,262.35c2.85,4.83,28.26,46.26,80.3,52.8,40.18,5.06,69.81-14,76.74-18.73V0Z"/><path class="cls-4" d="M1273,0c87.65,76.51,158.4,99.86,208.39,106.26,12.79,1.63,60.68,6.83,125.49,19.65,56.94,11.26,75,18.13,87.77,24,45.65,21,74.46,52.49,90.85,74.24,2.46,4.12,24.38,39.52,69.29,45.12,34.67,4.32,60.23-12,66.21-16V0Z"/></svg>